<?xml version="1.0" encoding="utf-8"?>
<!-- Generator: Adobe Illustrator 17.0.0, SVG Export Plug-In . SVG Version: 6.00 Build 0)  -->
<!DOCTYPE svg PUBLIC "-//W3C//DTD SVG 1.1//EN" "http://www.w3.org/Graphics/SVG/1.1/DTD/svg11.dtd">
<svg version="1.1" id="Layer_1" xmlns="http://www.w3.org/2000/svg" xmlns:xlink="http://www.w3.org/1999/xlink" x="0px" y="0px"
	 width="25.4px" height="25.4px" viewBox="0 0 25.4 25.4" enable-background="new 0 0 25.4 25.4" xml:space="preserve">
<g id="Shape_1_10_">
	<g>
		<path fill-rule="evenodd" clip-rule="evenodd" fill="#FFFFFF" d="M17,12.7l8-8c0.6-0.6,0.6-1.5,0-2.1l-2.1-2.1
			c-0.6-0.6-1.5-0.6-2.1,0l-8,8l-8-8c-0.6-0.6-1.5-0.6-2.1,0L0.4,2.6c-0.6,0.6-0.6,1.5,0,2.1l8,8l-8,8c-0.6,0.6-0.6,1.5,0,2.1
			L2.6,25c0.6,0.6,1.5,0.6,2.1,0l8-8l8,8c0.6,0.6,1.5,0.6,2.1,0l2.1-2.1c0.6-0.6,0.6-1.5,0-2.1L17,12.7z"/>
	</g>
</g>
</svg>
