<?xml version="1.0" encoding="utf-8"?>
<!-- Generator: Adobe Illustrator 16.2.0, SVG Export Plug-In . SVG Version: 6.00 Build 0)  -->
<!DOCTYPE svg PUBLIC "-//W3C//DTD SVG 1.1//EN" "http://www.w3.org/Graphics/SVG/1.1/DTD/svg11.dtd">
<svg version="1.1" id="Layer_1" xmlns="http://www.w3.org/2000/svg" xmlns:xlink="http://www.w3.org/1999/xlink" x="0px" y="0px"
	 width="224.997px" height="365.854px" viewBox="0 0 224.997 365.854" enable-background="new 0 0 224.997 365.854"
	 xml:space="preserve">
<script  type="text/JavaScript">
	<![CDATA[
function notify( ref, type ) {
    var event = document.createEvent("CustomEvent");
    event.initEvent(type,true,true);
    ref.dispatchEvent(event);
}

		
		
		
		]]>
</script>
<path id="Pants" onclick="notify(this, &quot;select&quot;);" fill="#4D4D4D" d="M52.947,267.217c0,0,29.604,88.877,32.225,93.162
	h25.699l-0.5-48.565h9.357l1.453,48.565h24.743c0,0,26.596-85.288,27.031-94.313C173.397,257.037,52.947,267.217,52.947,267.217z"/>
<path fill="#BDA682" d="M67.881,160.4h92.194c0,0,26.094,43.405,26.094,50.559c0,7.149-22.826,81.653-22.826,81.653
	s-90.738,9.93-111.49-0.29c0,0,0.123-75.093,0.123-85.31C51.975,196.797,67.881,160.4,67.881,160.4z"/>
<path fill="#C8B089" d="M160.577,154.929c0,0,15.35,2.905,20.061,9.097c4.722,6.19,24.972,122.758,15.842,134.033
	c-9.129,11.271-36.355,5.757-37.9-4.78c-1.548-10.536,7.295-29.668,15.188-27.817L160.577,154.929z"/>
<path fill="#C8B089" d="M70.214,158.809c0,0-16.466-0.257-23.445,17.519c-6.979,17.774-9.669,92.504-8.209,98.178
	c1.463,5.68-0.067,34.253,14.538,35.531c14.606,1.28,36.301-9.712,32.286-22.66c-4.019-12.949-24.979-20.827-29.262-11.062
	C56.121,276.313,58.947,167.861,70.214,158.809z"/>
<path id="Shirt" onclick="notify(this, &quot;select&quot;);" fill="#CCCCCC" d="M74.899,155.993c0,0-40.953-8.39-35.863,67.915
	l19.562-1.174c0,0-4.179,34.768-2.479,53.58c0,0,27.525-11.709,27.525,21.551c0,0,75.914-1.567,76.304-3.132
	c0.393-1.562-1.541-26.721,13.119-27.447l0.967-4.247l-4.693-39.521l24.652,0.783c0,0-3.914-69.26-21.912-66.917
	c-15.541,2.024-27.211,0.391-27.211,0.391S113.761,191.921,74.899,155.993z"/>
<rect x="21.178" y="38.983" fill="#C8B089" width="182.84" height="121.417"/>
<path fill="#BDA682" d="M66.709,114.299c0,0-5.733,16.958-16.48,17.674c-10.746,0.718-13.853-15.283-13.853-16.956
	C36.375,113.345,66.709,114.299,66.709,114.299z"/>
<path fill="#BDA682" d="M163.676,112.389c0,0,2.867,14.33,12.898,17.913c10.03,3.582,17.913-13.612,16.719-18.15
	C192.1,107.612,163.676,112.389,163.676,112.389z"/>
<path fill="#F2F2F2" d="M65.099,106.63c2.66,7.624,0.546,15.003-7.077,17.662c-1.713,0.597-7.283,0.856-8.995,0.813
	c-5.912-0.146-9.475-2.938-11.537-8.849c-2.657-7.624,1.995-13.195,9.62-15.857C54.735,97.743,62.438,99.007,65.099,106.63z"/>
<circle fill="#22B573" cx="51.618" cy="111.552" r="9.552"/>
<path fill="#88735E" d="M182.655,45.673c0,0-117.907,40.888-146.916,21.71C6.728,48.211,12.327,21.602,19.372,16.518
	c0,0,4.77,15.851,15.749,15.063c0,0-8.7-15.265-2.9-25.629c0,0,8.705,18.979,33.15,26.415c12.349,3.75,26.321,2.348,36.266-1.376
	c9.946-3.713,44.131-25.625,75.833-8.406C209.172,39.798,182.655,45.673,182.655,45.673z"/>
<path fill="#88735E" d="M206.907,41.367c0,0-1.766-7.241-5.092-6.85c-3.324,0.391-9.781,1.171-10.367,3.129
	c-0.586,1.956-9,4.896-9,4.896l21.834,69.01L206.907,41.367z"/>
<polygon fill="#88735E" points="33.386,38.433 20.862,38.821 20.912,114.419 41.407,42.736 "/>
<g>
	<path fill="#736357" d="M25.888,43.095c0,0-1.146,35.593,68.178,19.497C94.064,62.592,41.835,64.194,25.888,43.095z"/>
	<path fill="#736357" d="M45.275,34.908c0,0,15.746,40.692,62.986,24.26C108.261,59.168,73.454,66.215,45.275,34.908z"/>
	<path fill="#736357" d="M56.048,48.605l2.487,5.867l-18.652-0.781c0,0,24.449,12.524,40.614,10.567
		c16.158-1.958-0.828-3.523-0.828-3.523L56.048,48.605z"/>
</g>
<path fill="#736357" d="M29.146,88.034l3.894,14.138c0,0,25.341-5.898,34.497-4.92l-0.911-15.646
	C66.626,81.607,37.102,85.202,29.146,88.034z"/>
<circle fill="#F2F2F2" cx="57.063" cy="107.45" r="5.447"/>
<path fill="#F2F2F2" d="M192.479,114.039c-2.143,5.963-7.758,8.724-13.748,8.729c-1.645,0.001-6.184-0.274-7.818-0.863
	c-7.604-2.729-8.688-10.144-5.959-17.741c2.729-7.6,10.451-8.794,18.057-6.066C190.608,100.823,195.206,106.441,192.479,114.039z"/>
<circle fill="#22B573" cx="178.401" cy="109.204" r="9.552"/>
<circle fill="#F2F2F2" cx="183.846" cy="105.101" r="5.445"/>
<path fill="#736357" d="M152.508,81.082l2.742,14.873c0,0,38.347-1.568,43.041,4.301l1.567-18.388
	C199.86,81.868,193.596,78.736,152.508,81.082z"/>
<g>
	<polygon fill="#736357" points="194.598,136.115 176.877,136.115 169.737,137.544 169.737,136.115 168.889,136.115 
		161.165,140.402 161.165,136.115 46.89,136.115 46.89,140.876 41.254,136.115 29.082,136.115 20.852,116.008 20.862,163.256 
		204.282,163.256 204.311,114.009 	"/>
	<polygon fill="#736357" points="17.37,155.636 22.607,152.542 21.178,142.067 	"/>
	<polygon fill="#736357" points="54.032,166.113 54.032,160.4 69.745,168.732 69.745,158.97 41.176,159.208 	"/>
	<polygon fill="#736357" points="101.885,157.542 102.242,161.351 108.313,169.207 108.313,160.4 114.028,161.589 114.028,166.113 
		121.407,161.115 120.217,157.78 	"/>
	<path fill="#736357" d="M195.924,158.019c0,0-13.334-2.382-14.047-2.619c-0.715-0.237-16.428,6.429-16.428,6.429v5.714l14.284-6.43
		v7.855L195.924,158.019z"/>
	<polygon fill="#736357" points="203.067,140.876 207.829,155.4 201.875,151.589 	"/>
</g>
<path fill="#4D4D4D" d="M77.381,144.687c0,0,2.345,2.855,3.915,2.855c1.562,0,71.998,0,71.998,0s1.957-1.43,3.521-2.855H77.381z"/>
<path fill="#C8B089" d="M20.951,119.261c0,0-12.879-10.77-16.814-5.274c-3.935,5.491-6.646,13.588-0.579,18.209
	c6.068,4.622,16.476,2.602,17.053,1.444C21.188,132.481,20.951,119.261,20.951,119.261z"/>
<path fill="#998675" d="M20.471,124.519c0,0-15.65-11.344-14.871-1.565c0,0,0.392,6.651,3.525,6.651
	C9.126,129.604,10.298,119.823,20.471,124.519z"/>
<path fill="#C8B089" d="M204.174,121.61c0,0,12.798-10.768,16.712-5.273c3.911,5.49,6.603,13.589,0.569,18.208
	c-6.031,4.622-16.369,2.602-16.94,1.445C203.942,134.833,204.174,121.61,204.174,121.61z"/>
<path fill="#998675" d="M204.653,126.865c0,0,15.551-11.346,14.771-1.566c0,0-0.389,6.651-3.496,6.651
	C215.928,131.951,214.761,122.169,204.653,126.865z"/>
<path opacity="0.2" enable-background="new    " d="M106.208,171.663c0,0,7.417,0.854,16.871-0.838l-0.002,27.638
	c0,0-9.672,2.191-16.36-0.155L106.208,171.663z"/>
<g>
	<circle fill="#4D4D4D" cx="114.185" cy="178.283" r="3.37"/>
	<circle fill="#4D4D4D" cx="114.185" cy="188.652" r="3.37"/>
</g>
<polygon fill="#F2F2F2" stroke="#736357" stroke-width="2" stroke-miterlimit="10" points="106.225,127.545 106.046,127.545 
	124.991,127.545 124.274,127.545 "/>
<path fill="#F2F2F2" d="M98.371,33.647c0,0,93.252,13.777,106.866,56.291l11.229-16.479l-3.584-7.404c0,0,7.174-9.811-6.916-29.396
	c-4.646-6.458-14.264-9.092-25.656-14.55c-23.159-11.089-53.689-20.432-64.875-3.348L99.67,22.584l-5.524,11.557"/>
<path opacity="0.2" enable-background="new    " d="M131.881,200.396c0,0,21.463,1.188,26.902-0.716l-1.812,24.761
	c0,0-11.485,6.902-24.485,0L131.881,200.396z"/>
<g>
	<polygon fill="#F15A24" points="141.167,200.722 141.167,191.824 144.024,191.824 144.024,200.757 	"/>
	<polygon fill="#ED1C24" points="144.024,191.824 146.879,190.931 146.879,200.722 144.024,200.757 	"/>
	<path fill="#FF6980" d="M138.088,185.575l-0.092-3.75c0,0,0.184-1.43,1.096-1.43c0.914,0,6.755-0.27,7.479,0.18
		c0.729,0.445,0.642,0.982,0.729,1.785c0.095,0.805-0.364,4.105-0.364,4.105S142.924,189.147,138.088,185.575z"/>
	<polygon fill="#C0151C" points="141.167,191.824 138.31,190.931 138.31,200.653 141.167,200.722 	"/>
	<path fill="#918343" d="M138.042,184.325l0.254,7.32c0,0,3.785,1.873,8.584-0.088l0.336-7.322
		C147.215,184.237,142.502,187.183,138.042,184.325z"/>
</g>
<path opacity="0.4" enable-background="new    " d="M98.371,33.647c0,0,93.252,13.777,106.866,56.291l11.229-16.479l-3.584-7.404
	c0,0-20.184-31.646-97.448-47.291L99.67,22.586l-5.524,11.557"/>
<polygon opacity="0.2" enable-background="new    " points="165.78,195.87 159.424,195.274 164.985,203.818 162.106,203.91 
	171.34,240.861 168.524,210.073 169.85,206.298 167.368,205.504 "/>
<path opacity="0.2" enable-background="new    " d="M58.599,222.736c0,0,2.617-24.361,3.453-29.498l3.105,20.898l-2.747,0.599
	l10.03,14.448L56.2,254.979l0.597-16.359C56.797,238.617,58.133,224.052,58.599,222.736z"/>
<path opacity="0.2" fill="#292928" enable-background="new    " d="M79.846,281.491c0,0,4.06,6.925,3.344,16.358l49.561-1.436
	l-3.349-3.464L88.8,292.712C88.8,292.713,84.622,284.713,79.846,281.491z"/>
<polygon opacity="0.4" fill="#1A1A1A" enable-background="new    " points="110.457,322.491 110.308,322.034 105.461,310.894 
	96.714,307.38 132.465,304.43 123.075,310.797 120.209,324.483 119.495,311.814 110.655,311.814 "/>
<ellipse fill="#D9E021" cx="116.833" cy="302.428" rx="2.992" ry="2.866"/>
<path fill="#333333" d="M110.871,358.951c0,0,2.89,5.831,1.458,11.085l-2.866,1.771H67.665c0,0-2.39-2.903-0.717-3.621
	c1.671-0.718,18.224-9.233,18.224-9.233L110.871,358.951L110.871,358.951z"/>
<path fill="#333333" d="M121.18,358.951c0,0-2.754,5.831-1.389,11.085l2.729,1.771h39.787c0,0,2.274-2.903,0.687-3.621
	c-1.593-0.718-17.353-9.233-17.353-9.233L121.18,358.951L121.18,358.951z"/>
<g>
	<path fill="#333333" d="M173.665,260.029l0.334,2.767l-0.838,4.438c0,0,14.906,0.966,25.381,8.042c0,0-0.068-8.192-0.781-12.44
		C197.756,262.833,189.256,261.361,173.665,260.029z"/>
	<polygon fill="#1A1A1A" points="176.553,260.491 175.967,267.072 176.637,267.112 176.971,260.533 	"/>
	<polygon fill="#1A1A1A" points="181.458,261.097 181.038,261.058 180.075,267.513 180.409,267.595 	"/>
	<polygon fill="#1A1A1A" points="186.194,261.703 185.815,261.62 184.557,268.566 185.059,268.686 	"/>
	<polygon fill="#1A1A1A" points="190.213,262.269 189.75,262.188 189.208,269.735 189.584,270.137 	"/>
	<polygon fill="#1A1A1A" points="194.323,262.751 193.567,262.712 192.815,271.024 193.233,271.348 	"/>
	<path fill="#1A1A1A" d="M198.67,265.214c0,0-0.151-0.97-0.308-1.211c-0.149-0.243-1.684-0.525-1.937-0.204
		c-0.254,0.324-0.311,2.061-0.311,2.061l0.055,7.021c0,0,1.781,1.25,2.09,1.25c0.308,0,0.972-0.565,0.919-0.688
		C199.129,273.328,198.67,265.214,198.67,265.214z"/>
	<path fill="#CCCCCC" d="M198.301,264.851c0,0-0.252-0.728-0.377-0.686c-0.125,0.041-0.586,0.604-0.586,0.808
		c0,0.202,0.461,8.151,0.461,8.151s0.377,0.646,0.587,0.563c0.209-0.082,0.42-0.851,0.42-0.851L198.301,264.851z"/>
</g>
<path id="Cap" onclick="notify(this, &quot;select&quot;);" opacity="0.8" fill="#C1272D" enable-background="new    " d="
	M98.371,33.647c0,0,93.252,13.777,106.866,56.291l11.229-16.479l-3.584-7.404c0,0,7.174-9.811-6.916-29.396
	c-4.646-6.458-14.264-9.092-25.656-14.55c-23.159-11.089-53.689-20.432-64.875-3.348L99.67,22.584l-5.524,11.557"/>
<polygon fill="#FFFFFF" points="188.069,50.798 197.301,34.458 206.54,46.713 193.575,56.838 "/>
</svg>
